<svg xmlns="http://www.w3.org/2000/svg" viewBox="150 180 760 540" role="img" aria-label="youin">
  <path fill="#c2272a" d="M479 218.9c-31 9.9-37.6 51.3-11.1 70.2 22.7 16.3 53.9 5.8 62.6-21 2.5-7.7 1.7-19.7-1.7-27.3-3.1-6.7-10.2-14.7-16.2-18.2-9.6-5.6-23.1-7.1-33.6-3.7zM484.8 323c-11.9 1.5-22.2 9.3-27.6 20.8l-2.7 5.7-.5 90.5c-.5 89.1-.6 90.6-2.7 98.2-9.5 33.7-35.1 59.1-68.9 68.4-9 2.4-28.1 2.9-39.2 1-34.1-5.9-61.9-30.4-73.2-64.4-4.6-14-5-21.3-5-93.9 0-77.2-.1-77.9-7.1-92.3-7.7-15.5-22.3-27-38.8-30.5-4-.8-11.5-1.5-16.7-1.5h-9.5l.4 104.2c.3 89.1.6 105.5 1.9 112.4 5.5 28.5 15.9 52.9 31.6 74 8.7 11.7 24.5 27.2 36.2 35.7 11.1 7.8 31.7 18.3 44.5 22.6 52.1 17.4 108.5 8.5 152.7-24.1 10.7-7.8 27.5-24.8 36-36.3 12.4-16.7 23.6-41.4 28.4-62.4 4.3-19.3 4.7-28.9 4.1-116.6-.4-79.9-.5-82.1-2.5-87.4-5.8-14.9-15.9-22.4-33.2-24.5-1.4-.2-5.1 0-8.2.4zM680 325.7c-32 5-58 16.9-81.5 37.3-28.9 25-47.9 58.7-55.6 98.5-.6 2.7-1.4 20.1-1.9 38.5-1.1 43.2-3.3 58.3-11.7 81-16.8 45.2-53.7 84-93.8 98.5-2.7 1-5.4 2.2-5.9 2.7-1.4 1.2 28.7 1 40.2-.3 52.8-5.7 96.1-32.7 121.5-75.7 6.1-10.2 12.6-25.9 15.7-37.7 4.4-17.2 5.2-24.9 6-61.5.9-38 1.4-42.7 6.6-55.6 10.3-25.9 31.7-45.1 57.9-52 9.8-2.6 33.3-2.6 42.5 0 27.9 7.7 48.5 28.1 57.2 56.7 2.2 7.4 2.2 7.6 2.8 97.9.5 83.5.7 90.8 2.3 95 3 7.6 6.4 12.5 12.4 18 10.5 9.6 21.5 13 43.1 13H851V577.2c0-59.6-.4-106.6-1-112-5-47.2-30.6-90.4-68.5-115.7-17.1-11.4-33.1-18-53.2-22-10.5-2.1-15-2.5-29.1-2.4-9.2.1-17.8.4-19.2.6z"/>
</svg>
